<?xml version="1.0" encoding="UTF-8" standalone="no"?>
<!-- Created with Inkscape (http://www.inkscape.org/) -->

<svg
   width="26.698259mm"
   height="10.61031mm"
   viewBox="0 0 26.698259 10.61031"
   version="1.1"
   id="svg1"
   inkscape:version="1.4.4 (dcaf3e7d9e, 2026-05-05)"
   sodipodi:docname="logo.svg"
   xmlns:inkscape="http://www.inkscape.org/namespaces/inkscape"
   xmlns:sodipodi="http://sodipodi.sourceforge.net/DTD/sodipodi-0.dtd"
   xmlns="http://www.w3.org/2000/svg"
   xmlns:svg="http://www.w3.org/2000/svg">
  <sodipodi:namedview
     id="namedview1"
     pagecolor="#ffffff"
     bordercolor="#000000"
     borderopacity="0.25"
     inkscape:showpageshadow="2"
     inkscape:pageopacity="0.0"
     inkscape:pagecheckerboard="0"
     inkscape:deskcolor="#d1d1d1"
     inkscape:document-units="mm"
     inkscape:zoom="6.2145904"
     inkscape:cx="35.320107"
     inkscape:cy="22.527631"
     inkscape:window-width="1920"
     inkscape:window-height="1050"
     inkscape:window-x="0"
     inkscape:window-y="0"
     inkscape:window-maximized="0"
     inkscape:current-layer="layer1"
     showgrid="false"
     showguides="true">
    <inkscape:grid
       id="grid3"
       units="mm"
       originx="-16.394455"
       originy="-91.224594"
       spacingx="0.26458333"
       spacingy="0.26458334"
       empcolor="#0099e5"
       empopacity="0.30196078"
       color="#0099e5"
       opacity="0.14901961"
       empspacing="5"
       enabled="true"
       visible="false" />
  </sodipodi:namedview>
  <defs
     id="defs1" />
  <g
     inkscape:label="Layer 1"
     inkscape:groupmode="layer"
     id="layer1"
     transform="translate(-16.394455,-91.224595)">
    <path
       style="fill:none;fill-opacity:1;stroke:#974ea1;stroke-width:1;stroke-linecap:round;stroke-linejoin:round;stroke-opacity:1"
       d="m 23.329849,94.068748 11.075965,4.958465 5.409585,-5.797747"
       id="path20"
       sodipodi:nodetypes="ccc" />
    <path
       style="font-size:11.2889px;line-height:1.2;font-family:Outfit;-inkscape-font-specification:Outfit;letter-spacing:0px;stroke-linecap:round;stroke-linejoin:round"
       d="m 38.283643,101.71535 v -5.362229 h 1.016001 v 5.362229 z"
       id="path15" />
    <path
       style="font-size:11.2889px;line-height:1.2;font-family:Outfit;-inkscape-font-specification:Outfit;letter-spacing:0px;stroke-linecap:round;stroke-linejoin:round"
       d="m 42.076714,101.71535 v -3.127027 q 0,-0.609601 -0.383823,-1.004712 -0.383822,-0.395112 -0.993423,-0.395112 -0.4064,0 -0.72249,0.180623 -0.316089,0.180622 -0.496711,0.496711 -0.180623,0.31609 -0.180623,0.72249 l -0.417689,-0.237067 q 0,-0.609601 0.270934,-1.083734 0.270933,-0.474134 0.756356,-0.745068 0.485423,-0.282222 1.095023,-0.282222 0.609601,0 1.072446,0.3048 0.474134,0.3048 0.745067,0.801512 0.270934,0.485423 0.270934,1.038579 v 3.330227 z"
       id="path12" />
    <path
       style="font-size:11.2889px;line-height:1.2;font-family:Outfit;-inkscape-font-specification:Outfit;letter-spacing:0px;stroke-linecap:round;stroke-linejoin:round"
       d="m 30.415272,101.71535 h -1.02729 v -1.44498 l 0.191912,-1.309513 -0.191912,-1.298224 v -4.007559 h 1.02729 z"
       id="path5" />
    <path
       style="font-size:11.2889px;line-height:1.2;font-family:Outfit;-inkscape-font-specification:Outfit;letter-spacing:0px;stroke-linecap:round;stroke-linejoin:round"
       d="m 27.593047,101.82824 q -0.745067,0 -1.33209,-0.36125 -0.587023,-0.37253 -0.936979,-1.00471 -0.338667,-0.632178 -0.338667,-1.422401 0,-0.790223 0.338667,-1.422401 0.349956,-0.632179 0.936979,-1.004713 0.587023,-0.372533 1.33209,-0.372533 0.598312,0 1.083735,0.259644 0.485422,0.248356 0.778934,0.699912 0.3048,0.440267 0.338667,1.02729 v 1.614313 q -0.03387,0.575729 -0.327378,1.027289 -0.293512,0.45156 -0.778935,0.7112 -0.485422,0.24836 -1.095023,0.24836 z m 0.169334,-0.95956 q 0.508,0 0.880534,-0.23707 0.383822,-0.23706 0.598312,-0.643463 0.214489,-0.41769 0.214489,-0.948268 0,-0.553156 -0.225778,-0.959557 -0.214489,-0.4064 -0.598312,-0.643467 -0.372534,-0.237067 -0.880534,-0.237067 -0.508001,0 -0.891823,0.237067 -0.383823,0.237067 -0.609601,0.654756 -0.214489,0.406401 -0.214489,0.936979 0,0.541867 0.214489,0.959557 0.225778,0.406403 0.609601,0.643463 0.395111,0.23707 0.903112,0.23707 z"
       id="path4" />
    <path
       style="font-size:11.2889px;line-height:1.2;font-family:Outfit;-inkscape-font-specification:Outfit;letter-spacing:0px;stroke-linecap:round;stroke-linejoin:round"
       d="m 22.806543,101.71535 v -5.362229 h 1.016001 v 5.362229 z"
       id="path2" />
    <path
       style="font-size:11.2889px;line-height:1.2;font-family:Outfit;-inkscape-font-specification:Outfit;letter-spacing:0px;stroke-linecap:round;stroke-linejoin:round"
       d="m 19.227969,101.82824 q -0.801512,0 -1.444979,-0.36125 -0.643467,-0.37253 -1.016001,-1.00471 -0.372534,-0.632178 -0.372534,-1.43369 0,-0.790223 0.361245,-1.422401 0.372534,-0.632179 0.993423,-0.993424 0.632179,-0.372533 1.411113,-0.372533 0.745067,0 1.309512,0.338667 0.575734,0.338667 0.891823,0.936978 0.327378,0.598312 0.327378,1.354668 0,0.11289 -0.01129,0.248356 -0.01129,0.124178 -0.04516,0.293512 H 17.10565 v -0.846668 h 3.984982 l -0.372534,0.327378 q 0,-0.541867 -0.191911,-0.914401 Q 20.334275,97.5949 19.98432,97.3917 q -0.349956,-0.21449 -0.846668,-0.21449 -0.519289,0 -0.914401,0.225778 -0.395111,0.225778 -0.609601,0.632179 -0.214489,0.4064 -0.214489,0.959556 0,0.564445 0.225778,0.993424 0.225778,0.417693 0.643468,0.654753 0.417689,0.22578 0.959556,0.22578 0.451556,0 0.82409,-0.15804 0.383823,-0.15805 0.654756,-0.47414 l 0.654756,0.66605 q -0.383822,0.45155 -0.948267,0.68862 -0.553156,0.23707 -1.185335,0.23707 z"
       id="text4" />
    <circle
       style="fill:#dfc5e3;fill-opacity:1;stroke:#974ea1;stroke-width:1;stroke-linecap:round;stroke-linejoin:round;stroke-opacity:1"
       id="path1"
       cx="34.34417"
       cy="99.034904"
       r="2.3" />
    <circle
       style="fill:#dfc5e3;fill-opacity:1;stroke:#974ea1;stroke-width:1;stroke-linecap:round;stroke-linejoin:round;stroke-opacity:1"
       id="path1-9"
       cx="23.314543"
       cy="94.094551"
       r="1.1861243" />
    <path
       style="fill:#dfc5e3;fill-opacity:1;stroke:#974ea1;stroke-width:1;stroke-linecap:round;stroke-linejoin:miter;stroke-opacity:1"
       d="m 37.194162,93.245308 c 1.642226,-2.027618 3.612898,-2.027618 5.255126,0 -1.642228,2.027617 -3.6129,2.027617 -5.255126,0 z"
       id="path3"
       sodipodi:nodetypes="ccc" />
    <circle
       style="fill:none;fill-opacity:1;stroke:#974ea1;stroke-width:0.5;stroke-linecap:round;stroke-linejoin:round;stroke-dasharray:none;stroke-opacity:1"
       id="path6"
       cx="39.821735"
       cy="93.245308"
       r="0.5" />
  </g>
</svg>
